STARTFONT 2.1
FONT pelm.latineur.9
SIZE 16 72 72
FONTBOUNDINGBOX 9 16 0 -3
STARTPROPERTIES 4
FONT_DESCENT 3
FONT_ASCENT 13
DEFAULT_CHAR 0
COPYRIGHT "Copyright (C) 1985 Bigelow & Holmes Inc. All rights reserved."
ENDPROPERTIES
CHARS 127
STARTCHAR ch-0
ENCODING 0
SWIDTH 562 0
DWIDTH 9 0
BBX 9 16 0 -3
BITMAP
3e00
3e00
0000
1c00
1c00
2600
2600
2600
7f00
4300
4300
6300
6300
0000
0000
0000
ENDCHAR
STARTCHAR ch-1
ENCODING 1
SWIDTH 562 0
DWIDTH 9 0
BBX 9 16 0 -3
BITMAP
0000
3e00
3e00
0000
0000
3e00
6300
0300
0300
3f00
6300
6300
6700
3b00
0000
0000
ENDCHAR
STARTCHAR ch-2
ENCODING 2
SWIDTH 562 0
DWIDTH 9 0
BBX 9 16 0 -3
BITMAP
6300
3e00
0000
1c00
1c00
2600
2600
2600
7f00
4300
4300
6380
6380
0000
0000
0000
ENDCHAR
STARTCHAR ch-3
ENCODING 3
SWIDTH 562 0
DWIDTH 9 0
BBX 9 16 0 -3
BITMAP
0000
6300
3e00
0000
0000
3e00
6300
0300
0300
3f00
6300
6300
6700
3b00
0000
0000
ENDCHAR
STARTCHAR ch-4
ENCODING 4
SWIDTH 562 0
DWIDTH 9 0
BBX 9 16 0 -3
BITMAP
0000
0000
1c00
1c00
1c00
2600
2600
2600
7f00
4300
4300
6300
6300
0400
0500
0600
ENDCHAR
STARTCHAR ch-5
ENCODING 5
SWIDTH 562 0
DWIDTH 9 0
BBX 9 16 0 -3
BITMAP
0000
0000
0000
0000
0000
3e00
6300
0300
0300
3f00
6300
6300
6700
3b00
0280
0300
ENDCHAR
STARTCHAR ch-6
ENCODING 6
SWIDTH 562 0
DWIDTH 9 0
BBX 9 16 0 -3
BITMAP
0700
0e00
1800
1f00
3100
6000
6000
6000
6000
6000
6000
3100
1f00
0000
0000
0000
ENDCHAR
STARTCHAR ch-7
ENCODING 7
SWIDTH 562 0
DWIDTH 9 0
BBX 9 16 0 -3
BITMAP
0000
0700
0e00
1800
1e00
3300
6300
6000
6000
6000
6000
3300
1e00
0000
0000
0000
ENDCHAR
STARTCHAR ch-8
ENCODING 8
SWIDTH 562 0
DWIDTH 9 0
BBX 9 16 0 -3
BITMAP
0e00
1b00
0000
1f00
3100
6000
6000
6000
6000
6000
6000
3100
1f00
0000
0000
0000
ENDCHAR
STARTCHAR ch-9
ENCODING 9
SWIDTH 562 0
DWIDTH 9 0
BBX 9 16 0 -3
BITMAP
0000
1c00
3600
0000
1e00
3300
6300
6000
6000
6000
6000
3300
1e00
0000
0000
0000
ENDCHAR
STARTCHAR ch-10
ENCODING 10
SWIDTH 562 0
DWIDTH 9 0
BBX 9 16 0 -3
BITMAP
0c00
0c00
0000
1f00
3100
6000
6000
6000
6000
6000
6000
3100
1f00
0000
0000
0000
ENDCHAR
STARTCHAR ch-11
ENCODING 11
SWIDTH 562 0
DWIDTH 9 0
BBX 9 16 0 -3
BITMAP
0000
0c00
0c00
0000
1e00
3300
6300
6000
6000
6000
6000
3300
1e00
0000
0000
0000
ENDCHAR
STARTCHAR ch-12
ENCODING 12
SWIDTH 562 0
DWIDTH 9 0
BBX 9 16 0 -3
BITMAP
1b00
0e00
0000
1f00
3100
6000
6000
6000
6000
6000
6000
3100
1f00
0000
0000
0000
ENDCHAR
STARTCHAR ch-13
ENCODING 13
SWIDTH 562 0
DWIDTH 9 0
BBX 9 16 0 -3
BITMAP
0000
3600
1c00
0000
1e00
3300
6300
6000
6000
6000
6000
3300
1e00
0000
0000
0000
ENDCHAR
STARTCHAR ch-14
ENCODING 14
SWIDTH 562 0
DWIDTH 9 0
BBX 9 16 0 -3
BITMAP
6c00
3800
0000
7c00
6600
6300
6300
6300
6300
6300
6300
6600
7c00
0000
0000
0000
ENDCHAR
STARTCHAR ch-15
ENCODING 15
SWIDTH 562 0
DWIDTH 9 0
BBX 9 16 0 -3
BITMAP
1b00
0e00
0300
0300
0300
1f00
3300
6300
6300
6300
6300
3700
1b00
0000
0000
0000
ENDCHAR
STARTCHAR ch-16
ENCODING 16
SWIDTH 562 0
DWIDTH 9 0
BBX 9 16 0 -3
BITMAP
0000
0000
7c00
6600
6300
6300
6300
fb00
6300
6300
6300
6600
7c00
0000
0000
0000
ENDCHAR
STARTCHAR ch-17
ENCODING 17
SWIDTH 562 0
DWIDTH 9 0
BBX 9 16 0 -3
BITMAP
0000
0300
0f80
0300
1f00
3300
6300
6300
6300
6300
6300
3700
1b00
0000
0000
0000
ENDCHAR
STARTCHAR ch-18
ENCODING 18
SWIDTH 562 0
DWIDTH 9 0
BBX 9 16 0 -3
BITMAP
7c00
7c00
0000
7e00
6000
6000
6000
7c00
6000
6000
6000
6000
7e00
0000
0000
0000
ENDCHAR
STARTCHAR ch-19
ENCODING 19
SWIDTH 562 0
DWIDTH 9 0
BBX 9 16 0 -3
BITMAP
0000
3e00
3e00
0000
1e00
3300
6300
6300
7f00
6000
6000
3300
1e00
0000
0000
0000
ENDCHAR
STARTCHAR ch-20
ENCODING 20
SWIDTH 562 0
DWIDTH 9 0
BBX 9 16 0 -3
BITMAP
6300
3e00
0000
7e00
6000
6000
6000
7c00
6000
6000
6000
6000
7e00
0000
0000
0000
ENDCHAR
STARTCHAR ch-21
ENCODING 21
SWIDTH 562 0
DWIDTH 9 0
BBX 9 16 0 -3
BITMAP
0000
6300
3e00
0000
1e00
3300
6300
6300
7f00
6000
6000
3300
1e00
0000
0000
0000
ENDCHAR
STARTCHAR ch-22
ENCODING 22
SWIDTH 562 0
DWIDTH 9 0
BBX 9 16 0 -3
BITMAP
1800
1800
0000
7e00
6000
6000
6000
7c00
6000
6000
6000
6000
7e00
0000
0000
0000
ENDCHAR
STARTCHAR ch-23
ENCODING 23
SWIDTH 562 0
DWIDTH 9 0
BBX 9 16 0 -3
BITMAP
0000
0c00
0c00
0000
1e00
3300
6300
6300
7f00
6000
6000
3300
1e00
0000
0000
0000
ENDCHAR
STARTCHAR ch-24
ENCODING 24
SWIDTH 562 0
DWIDTH 9 0
BBX 9 16 0 -3
BITMAP
0000
0000
7e00
6000
6000
6000
6000
7c00
6000
6000
6000
6000
7e00
0800
0a00
0c00
ENDCHAR
STARTCHAR ch-25
ENCODING 25
SWIDTH 562 0
DWIDTH 9 0
BBX 9 16 0 -3
BITMAP
0000
0000
0000
0000
1e00
3300
6300
6300
7f00
6000
6000
3300
1e00
0400
0500
0600
ENDCHAR
STARTCHAR ch-26
ENCODING 26
SWIDTH 562 0
DWIDTH 9 0
BBX 9 16 0 -3
BITMAP
6c00
3800
0000
7e00
6000
6000
6000
7c00
6000
6000
6000
6000
7e00
0000
0000
0000
ENDCHAR
STARTCHAR ch-27
ENCODING 27
SWIDTH 562 0
DWIDTH 9 0
BBX 9 16 0 -3
BITMAP
0000
3600
1c00
0000
1e00
3300
6300
6300
7f00
6000
6000
3300
1e00
0000
0000
0000
ENDCHAR
STARTCHAR ch-28
ENCODING 28
SWIDTH 562 0
DWIDTH 9 0
BBX 9 16 0 -3
BITMAP
0e00
1b00
0000
1f00
3100
6000
6000
6000
6700
6300
6300
3300
1f00
0000
0000
0000
ENDCHAR
STARTCHAR ch-29
ENCODING 29
SWIDTH 562 0
DWIDTH 9 0
BBX 9 16 0 -3
BITMAP
0000
0e00
1b00
0000
1f00
3300
6300
6300
6300
6300
6300
3700
1b00
0300
6300
3e00
ENDCHAR
STARTCHAR ch-30
ENCODING 30
SWIDTH 562 0
DWIDTH 9 0
BBX 9 16 0 -3
BITMAP
6300
3e00
0000
1f00
3100
6000
6000
6000
6700
6300
6300
3300
1f00
0000
0000
0000
ENDCHAR
STARTCHAR ch-31
ENCODING 31
SWIDTH 562 0
DWIDTH 9 0
BBX 9 16 0 -3
BITMAP
0000
6300
3e00
0000
1f00
3300
6300
6300
6300
6300
6300
3700
1b00
0300
6300
3e00
ENDCHAR
STARTCHAR ch-32
ENCODING 32
SWIDTH 562 0
DWIDTH 9 0
BBX 9 16 0 -3
BITMAP
0c00
0c00
0000
1f00
3100
6000
6000
6000
6700
6300
6300
3300
1f00
0000
0000
0000
ENDCHAR
STARTCHAR ch-33
ENCODING 33
SWIDTH 562 0
DWIDTH 9 0
BBX 9 16 0 -3
BITMAP
0000
0c00
0c00
0000
1f00
3300
6300
6300
6300
6300
6300
3700
1b00
0300
6300
3e00
ENDCHAR
STARTCHAR ch-34
ENCODING 34
SWIDTH 562 0
DWIDTH 9 0
BBX 9 16 0 -3
BITMAP
0000
0000
1f00
3100
6000
6000
6000
6000
6700
6300
6300
3300
1f00
0600
1600
1c00
ENDCHAR
STARTCHAR ch-35
ENCODING 35
SWIDTH 562 0
DWIDTH 9 0
BBX 9 16 0 -3
BITMAP
0000
0700
0e00
0800
1f00
3300
6300
6300
6300
6300
6300
3700
1b00
0300
6300
3e00
ENDCHAR
STARTCHAR ch-36
ENCODING 36
SWIDTH 562 0
DWIDTH 9 0
BBX 9 16 0 -3
BITMAP
1c00
3600
0000
6300
6300
6300
6300
7f00
6300
6300
6300
6300
6300
0000
0000
0000
ENDCHAR
STARTCHAR ch-37
ENCODING 37
SWIDTH 562 0
DWIDTH 9 0
BBX 9 16 0 -3
BITMAP
3800
6c00
0000
6000
6000
6000
6e00
7700
6300
6300
6300
6300
6300
0000
0000
0000
ENDCHAR
STARTCHAR ch-38
ENCODING 38
SWIDTH 562 0
DWIDTH 9 0
BBX 9 16 0 -3
BITMAP
0000
0000
6300
6300
ff80
6300
6300
7f00
6300
6300
6300
6300
6300
0000
0000
0000
ENDCHAR
STARTCHAR ch-39
ENCODING 39
SWIDTH 562 0
DWIDTH 9 0
BBX 9 16 0 -3
BITMAP
0000
6000
f800
6000
6e00
7700
6300
6300
6300
6300
6300
6300
6300
0000
0000
0000
ENDCHAR
STARTCHAR ch-40
ENCODING 40
SWIDTH 562 0
DWIDTH 9 0
BBX 9 16 0 -3
BITMAP
3b00
6b00
4e00
7e00
1800
1800
1800
1800
1800
1800
1800
1800
7e00
0000
0000
0000
ENDCHAR
STARTCHAR ch-41
ENCODING 41
SWIDTH 562 0
DWIDTH 9 0
BBX 9 16 0 -3
BITMAP
7600
d600
9c00
0000
f800
1800
1800
1800
1800
1800
1800
1800
ff00
0000
0000
0000
ENDCHAR
STARTCHAR ch-42
ENCODING 42
SWIDTH 562 0
DWIDTH 9 0
BBX 9 16 0 -3
BITMAP
7e00
7e00
0000
7e00
1800
1800
1800
1800
1800
1800
1800
1800
7e00
0000
0000
0000
ENDCHAR
STARTCHAR ch-43
ENCODING 43
SWIDTH 562 0
DWIDTH 9 0
BBX 9 16 0 -3
BITMAP
0000
f800
f800
0000
f000
3000
3000
3000
3000
3000
3000
3000
fe00
0000
0000
0000
ENDCHAR
STARTCHAR ch-44
ENCODING 44
SWIDTH 562 0
DWIDTH 9 0
BBX 9 16 0 -3
BITMAP
6300
3e00
0000
7e00
1800
1800
1800
1800
1800
1800
1800
1800
7e00
0000
0000
0000
ENDCHAR
STARTCHAR ch-45
ENCODING 45
SWIDTH 562 0
DWIDTH 9 0
BBX 9 16 0 -3
BITMAP
0000
c600
7c00
0000
f000
3000
3000
3000
3000
3000
3000
3000
fe00
0000
0000
0000
ENDCHAR
STARTCHAR ch-46
ENCODING 46
SWIDTH 562 0
DWIDTH 9 0
BBX 9 16 0 -3
BITMAP
0000
0000
7e00
1800
1800
1800
1800
1800
1800
1800
1800
1800
7e00
0800
0a00
0c00
ENDCHAR
STARTCHAR ch-47
ENCODING 47
SWIDTH 562 0
DWIDTH 9 0
BBX 9 16 0 -3
BITMAP
0000
1800
1800
0000
f800
1800
1800
1800
1800
1800
1800
1800
ff00
0800
0a00
0c00
ENDCHAR
STARTCHAR ch-48
ENCODING 48
SWIDTH 562 0
DWIDTH 9 0
BBX 9 16 0 -3
BITMAP
1800
1800
0000
7e00
1800
1800
1800
1800
1800
1800
1800
1800
7e00
0000
0000
0000
ENDCHAR
STARTCHAR ch-49
ENCODING 49
SWIDTH 562 0
DWIDTH 9 0
BBX 9 16 0 -3
BITMAP
0000
0000
0000
0000
f800
1800
1800
1800
1800
1800
1800
1800
ff00
0000
0000
0000
ENDCHAR
STARTCHAR ch-50
ENCODING 50
SWIDTH 562 0
DWIDTH 9 0
BBX 9 16 0 -3
BITMAP
0000
0000
ff80
6600
6600
6600
6600
6600
6600
6600
6600
6600
e600
0c00
1800
0000
ENDCHAR
STARTCHAR ch-51
ENCODING 51
SWIDTH 562 0
DWIDTH 9 0
BBX 9 16 0 -3
BITMAP
0000
6300
6300
0000
f700
6300
6300
6300
6300
6300
6300
6300
e300
0300
0600
1c00
ENDCHAR
STARTCHAR ch-52
ENCODING 52
SWIDTH 562 0
DWIDTH 9 0
BBX 9 16 0 -3
BITMAP
3800
6c00
0000
7e00
1800
1800
1800
1800
1800
1800
1800
1800
1800
3000
6000
0000
ENDCHAR
STARTCHAR ch-53
ENCODING 53
SWIDTH 562 0
DWIDTH 9 0
BBX 9 16 0 -3
BITMAP
0000
0000
1c00
3600
0000
3e00
0600
0600
0600
0600
0600
0600
0600
0600
0c00
3800
ENDCHAR
STARTCHAR ch-54
ENCODING 54
SWIDTH 562 0
DWIDTH 9 0
BBX 9 16 0 -3
BITMAP
0000
0000
c200
c600
cc00
c800
d000
f000
d800
cc00
cc00
c600
cf00
1800
5800
7000
ENDCHAR
STARTCHAR ch-55
ENCODING 55
SWIDTH 562 0
DWIDTH 9 0
BBX 9 16 0 -3
BITMAP
0000
6000
6000
6000
6300
6200
6400
6800
7800
6c00
6600
6300
6300
0600
1600
1c00
ENDCHAR
STARTCHAR ch-56
ENCODING 56
SWIDTH 562 0
DWIDTH 9 0
BBX 9 16 0 -3
BITMAP
0000
0000
0000
0000
6300
6700
6800
6800
7800
6c00
6400
6700
6300
0000
0000
0000
ENDCHAR
STARTCHAR ch-57
ENCODING 57
SWIDTH 562 0
DWIDTH 9 0
BBX 9 16 0 -3
BITMAP
1c00
3800
0000
6000
6000
6000
6000
6000
6000
6000
6000
6000
7f00
0000
0000
0000
ENDCHAR
STARTCHAR ch-58
ENCODING 58
SWIDTH 562 0
DWIDTH 9 0
BBX 9 16 0 -3
BITMAP
1c00
3800
0000
f800
1800
1800
1800
1800
1800
1800
1800
1800
ff00
0000
0000
0000
ENDCHAR
STARTCHAR ch-59
ENCODING 59
SWIDTH 562 0
DWIDTH 9 0
BBX 9 16 0 -3
BITMAP
0000
0000
6000
6000
6000
6000
6000
6000
6000
6000
6000
6000
7f00
0c00
2c00
3800
ENDCHAR
STARTCHAR ch-60
ENCODING 60
SWIDTH 562 0
DWIDTH 9 0
BBX 9 16 0 -3
BITMAP
0000
f800
1800
1800
1800
1800
1800
1800
1800
1800
1800
1800
ff00
0c00
2c00
3800
ENDCHAR
STARTCHAR ch-61
ENCODING 61
SWIDTH 562 0
DWIDTH 9 0
BBX 9 16 0 -3
BITMAP
6c00
3800
0000
6000
6000
6000
6000
6000
6000
6000
6000
6000
7f00
0000
0000
0000
ENDCHAR
STARTCHAR ch-62
ENCODING 62
SWIDTH 562 0
DWIDTH 9 0
BBX 9 16 0 -3
BITMAP
6c00
3800
0000
f800
1800
1800
1800
1800
1800
1800
1800
1800
ff00
0000
0000
0000
ENDCHAR
STARTCHAR ch-63
ENCODING 63
SWIDTH 562 0
DWIDTH 9 0
BBX 9 16 0 -3
BITMAP
0000
0000
6000
6000
6000
6600
6600
6000
6000
6000
6000
6000
7f00
0000
0000
0000
ENDCHAR
STARTCHAR ch-64
ENCODING 64
SWIDTH 562 0
DWIDTH 9 0
BBX 9 16 0 -3
BITMAP
0000
f800
1800
1800
1b00
1b00
1800
1800
1800
1800
1800
1800
ff00
0000
0000
0000
ENDCHAR
STARTCHAR ch-65
ENCODING 65
SWIDTH 562 0
DWIDTH 9 0
BBX 9 16 0 -3
BITMAP
0000
0000
6000
6000
6000
6000
6000
6000
7800
e000
6000
6000
7f00
0000
0000
0000
ENDCHAR
STARTCHAR ch-66
ENCODING 66
SWIDTH 562 0
DWIDTH 9 0
BBX 9 16 0 -3
BITMAP
0000
f800
1800
1800
1800
1800
1800
1e00
7800
1800
1800
1800
ff00
0000
0000
0000
ENDCHAR
STARTCHAR ch-67
ENCODING 67
SWIDTH 562 0
DWIDTH 9 0
BBX 9 16 0 -3
BITMAP
0700
0e00
1800
7100
7100
5900
5900
4d00
4d00
4d00
4700
4700
4300
0000
0000
0000
ENDCHAR
STARTCHAR ch-68
ENCODING 68
SWIDTH 562 0
DWIDTH 9 0
BBX 9 16 0 -3
BITMAP
0700
0e00
1800
0000
6e00
7700
6300
6300
6300
6300
6300
6300
6300
0000
0000
0000
ENDCHAR
STARTCHAR ch-69
ENCODING 69
SWIDTH 562 0
DWIDTH 9 0
BBX 9 16 0 -3
BITMAP
0000
0000
6100
7100
7100
5900
5900
4d00
4d00
4d00
4700
4700
4300
0c00
2c00
3800
ENDCHAR
STARTCHAR ch-70
ENCODING 70
SWIDTH 562 0
DWIDTH 9 0
BBX 9 16 0 -3
BITMAP
0000
0000
0000
0000
6e00
7700
6300
6300
6300
6300
6300
6300
6300
0c00
2c00
3800
ENDCHAR
STARTCHAR ch-71
ENCODING 71
SWIDTH 562 0
DWIDTH 9 0
BBX 9 16 0 -3
BITMAP
3600
1c00
0000
7100
7100
5900
5900
4d00
4d00
4d00
4700
4700
4300
0000
0000
0000
ENDCHAR
STARTCHAR ch-72
ENCODING 72
SWIDTH 562 0
DWIDTH 9 0
BBX 9 16 0 -3
BITMAP
0000
3600
1c00
0000
6e00
7700
6300
6300
6300
6300
6300
6300
6300
0000
0000
0000
ENDCHAR
STARTCHAR ch-73
ENCODING 73
SWIDTH 562 0
DWIDTH 9 0
BBX 9 16 0 -3
BITMAP
3000
3000
1000
2000
6e00
7700
6300
6300
6300
6300
6300
6300
6300
0000
0000
0000
ENDCHAR
STARTCHAR ch-74
ENCODING 74
SWIDTH 562 0
DWIDTH 9 0
BBX 9 16 0 -3
BITMAP
0000
0000
6e00
7700
6300
6300
6300
6300
6300
6300
6300
6300
6300
0300
1b00
0e00
ENDCHAR
STARTCHAR ch-75
ENCODING 75
SWIDTH 562 0
DWIDTH 9 0
BBX 9 16 0 -3
BITMAP
0000
0000
0000
0000
6e00
7700
6300
6300
6300
6300
6300
6300
6300
0300
1b00
0e00
ENDCHAR
STARTCHAR ch-76
ENCODING 76
SWIDTH 562 0
DWIDTH 9 0
BBX 9 16 0 -3
BITMAP
7e00
7e00
0000
3c00
6600
c300
c300
c300
c300
c300
c300
6600
3c00
0000
0000
0000
ENDCHAR
STARTCHAR ch-77
ENCODING 77
SWIDTH 562 0
DWIDTH 9 0
BBX 9 16 0 -3
BITMAP
0000
7e00
7e00
0000
3c00
6600
c300
c300
c300
c300
c300
6600
3c00
0000
0000
0000
ENDCHAR
STARTCHAR ch-78
ENCODING 78
SWIDTH 562 0
DWIDTH 9 0
BBX 9 16 0 -3
BITMAP
6600
3c00
0000
3c00
6600
c300
c300
c300
c300
c300
c300
6600
3c00
0000
0000
0000
ENDCHAR
STARTCHAR ch-79
ENCODING 79
SWIDTH 562 0
DWIDTH 9 0
BBX 9 16 0 -3
BITMAP
0000
6600
3c00
0000
3c00
6600
c300
c300
c300
c300
c300
6600
3c00
0000
0000
0000
ENDCHAR
STARTCHAR ch-80
ENCODING 80
SWIDTH 562 0
DWIDTH 9 0
BBX 9 16 0 -3
BITMAP
1980
3300
0000
3c00
6600
c300
c300
c300
c300
c300
c300
6600
3c00
0000
0000
0000
ENDCHAR
STARTCHAR ch-81
ENCODING 81
SWIDTH 562 0
DWIDTH 9 0
BBX 9 16 0 -3
BITMAP
0000
3300
6600
0000
3c00
6600
c300
c300
c300
c300
c300
6600
3c00
0000
0000
0000
ENDCHAR
STARTCHAR ch-82
ENCODING 82
SWIDTH 562 0
DWIDTH 9 0
BBX 9 16 0 -3
BITMAP
0000
0000
3f00
6c00
cc00
cc00
cc00
cf00
cc00
cc00
cc00
6c00
3f00
0000
0000
0000
ENDCHAR
STARTCHAR ch-83
ENCODING 83
SWIDTH 562 0
DWIDTH 9 0
BBX 9 16 0 -3
BITMAP
0000
0000
0000
0000
3300
6f00
cd80
cd80
cf00
cc00
cc00
6e80
3300
0000
0000
0000
ENDCHAR
STARTCHAR ch-84
ENCODING 84
SWIDTH 562 0
DWIDTH 9 0
BBX 9 16 0 -3
BITMAP
1c00
3800
6000
fc00
c600
c600
c400
f800
cc00
cc00
c600
c600
c700
0000
0000
0000
ENDCHAR
STARTCHAR ch-85
ENCODING 85
SWIDTH 562 0
DWIDTH 9 0
BBX 9 16 0 -3
BITMAP
0e00
1c00
3000
0000
7300
3f00
3300
3000
3000
3000
3000
3000
7c00
0000
0000
0000
ENDCHAR
STARTCHAR ch-86
ENCODING 86
SWIDTH 562 0
DWIDTH 9 0
BBX 9 16 0 -3
BITMAP
0000
0000
fc00
c600
c600
c600
c400
f800
cc00
cc00
c600
c600
c700
1800
5800
7000
ENDCHAR
STARTCHAR ch-87
ENCODING 87
SWIDTH 562 0
DWIDTH 9 0
BBX 9 16 0 -3
BITMAP
0000
0000
0000
0000
7300
3f00
3300
3000
3000
3000
3000
3000
7800
0c00
2c00
3800
ENDCHAR
STARTCHAR ch-88
ENCODING 88
SWIDTH 562 0
DWIDTH 9 0
BBX 9 16 0 -3
BITMAP
6c00
3800
0000
fc00
c600
c600
c400
f800
cc00
cc00
c600
c600
c700
0000
0000
0000
ENDCHAR
STARTCHAR ch-89
ENCODING 89
SWIDTH 562 0
DWIDTH 9 0
BBX 9 16 0 -3
BITMAP
0000
3600
1c00
0000
7300
3f00
3300
3000
3000
3000
3000
3000
7c00
0000
0000
0000
ENDCHAR
STARTCHAR ch-90
ENCODING 90
SWIDTH 562 0
DWIDTH 9 0
BBX 9 16 0 -3
BITMAP
0700
0e00
1800
3e00
6300
6000
7800
3e00
0f00
0300
0300
6300
3e00
0000
0000
0000
ENDCHAR
STARTCHAR ch-91
ENCODING 91
SWIDTH 562 0
DWIDTH 9 0
BBX 9 16 0 -3
BITMAP
0e00
1c00
3000
0000
3e00
6300
6000
7000
3e00
0700
0300
6300
3e00
0000
0000
0000
ENDCHAR
STARTCHAR ch-92
ENCODING 92
SWIDTH 562 0
DWIDTH 9 0
BBX 9 16 0 -3
BITMAP
1c00
3600
0000
3e00
6300
6000
7800
3e00
0f00
0300
0300
6300
3e00
0000
0000
0000
ENDCHAR
STARTCHAR ch-93
ENCODING 93
SWIDTH 562 0
DWIDTH 9 0
BBX 9 16 0 -3
BITMAP
0000
1c00
3600
0000
3e00
6300
6000
7000
3e00
0700
0300
6300
3e00
0000
0000
0000
ENDCHAR
STARTCHAR ch-94
ENCODING 94
SWIDTH 562 0
DWIDTH 9 0
BBX 9 16 0 -3
BITMAP
0000
0000
3e00
6300
6000
6000
7800
3e00
0f00
0300
0300
6300
3e00
0c00
2c00
3800
ENDCHAR
STARTCHAR ch-95
ENCODING 95
SWIDTH 562 0
DWIDTH 9 0
BBX 9 16 0 -3
BITMAP
0000
0000
0000
0000
3e00
6300
6000
7000
3e00
0700
0300
6300
3e00
0c00
2c00
3800
ENDCHAR
STARTCHAR ch-96
ENCODING 96
SWIDTH 562 0
DWIDTH 9 0
BBX 9 16 0 -3
BITMAP
3600
1c00
0000
3e00
6300
6000
7800
3e00
0f00
0300
0300
6300
3e00
0000
0000
0000
ENDCHAR
STARTCHAR ch-97
ENCODING 97
SWIDTH 562 0
DWIDTH 9 0
BBX 9 16 0 -3
BITMAP
0000
3600
1c00
0000
3e00
6300
6000
7000
3e00
0700
0300
6300
3e00
0000
0000
0000
ENDCHAR
STARTCHAR ch-98
ENCODING 98
SWIDTH 562 0
DWIDTH 9 0
BBX 9 16 0 -3
BITMAP
0000
0000
ff00
1800
1800
1800
1800
1800
1800
1800
1800
1800
1800
0c00
2c00
3800
ENDCHAR
STARTCHAR ch-99
ENCODING 99
SWIDTH 562 0
DWIDTH 9 0
BBX 9 16 0 -3
BITMAP
0000
0000
0800
1800
7f00
1800
1800
1800
1800
1800
1800
1800
0f00
0c00
2c00
3800
ENDCHAR
STARTCHAR ch-100
ENCODING 100
SWIDTH 562 0
DWIDTH 9 0
BBX 9 16 0 -3
BITMAP
3600
1c00
0000
ff00
1800
1800
1800
1800
1800
1800
1800
1800
1800
0000
0000
0000
ENDCHAR
STARTCHAR ch-101
ENCODING 101
SWIDTH 562 0
DWIDTH 9 0
BBX 9 16 0 -3
BITMAP
3600
1c00
0800
1800
7f00
1800
1800
1800
1800
1800
1800
1800
0f00
0000
0000
0000
ENDCHAR
STARTCHAR ch-102
ENCODING 102
SWIDTH 562 0
DWIDTH 9 0
BBX 9 16 0 -3
BITMAP
0000
0000
ff00
1800
1800
1800
1800
7e00
1800
1800
1800
1800
1800
0000
0000
0000
ENDCHAR
STARTCHAR ch-103
ENCODING 103
SWIDTH 562 0
DWIDTH 9 0
BBX 9 16 0 -3
BITMAP
0000
0000
0800
1800
7f00
1800
1800
1800
ff00
1800
1800
1800
0f00
0000
0000
0000
ENDCHAR
STARTCHAR ch-104
ENCODING 104
SWIDTH 562 0
DWIDTH 9 0
BBX 9 16 0 -3
BITMAP
3b00
6e00
0000
6300
6300
6300
6300
6300
6300
6300
6300
3600
1c00
0000
0000
0000
ENDCHAR
STARTCHAR ch-105
ENCODING 105
SWIDTH 562 0
DWIDTH 9 0
BBX 9 16 0 -3
BITMAP
0000
3b00
6e00
0000
6300
6300
6300
6300
6300
6300
6300
7700
3b00
0000
0000
0000
ENDCHAR
STARTCHAR ch-106
ENCODING 106
SWIDTH 562 0
DWIDTH 9 0
BBX 9 16 0 -3
BITMAP
3e00
3e00
0000
6300
6300
6300
6300
6300
6300
6300
6300
3600
1c00
0000
0000
0000
ENDCHAR
STARTCHAR ch-107
ENCODING 107
SWIDTH 562 0
DWIDTH 9 0
BBX 9 16 0 -3
BITMAP
0000
3e00
3e00
0000
6300
6300
6300
6300
6300
6300
6300
7700
3b00
0000
0000
0000
ENDCHAR
STARTCHAR ch-108
ENCODING 108
SWIDTH 562 0
DWIDTH 9 0
BBX 9 16 0 -3
BITMAP
6300
3e00
0000
6300
6300
6300
6300
6300
6300
6300
6300
3600
1c00
0000
0000
0000
ENDCHAR
STARTCHAR ch-109
ENCODING 109
SWIDTH 562 0
DWIDTH 9 0
BBX 9 16 0 -3
BITMAP
0000
6300
3e00
0000
6300
6300
6300
6300
6300
6300
6300
7700
3b00
0000
0000
0000
ENDCHAR
STARTCHAR ch-110
ENCODING 110
SWIDTH 562 0
DWIDTH 9 0
BBX 9 16 0 -3
BITMAP
0c00
1200
1200
0c00
6300
6300
6300
6300
6300
6300
6300
3600
1c00
0000
0000
0000
ENDCHAR
STARTCHAR ch-111
ENCODING 111
SWIDTH 562 0
DWIDTH 9 0
BBX 9 16 0 -3
BITMAP
0c00
1200
1200
0c00
6300
6300
6300
6300
6300
6300
6300
7700
3b00
0000
0000
0000
ENDCHAR
STARTCHAR ch-112
ENCODING 112
SWIDTH 562 0
DWIDTH 9 0
BBX 9 16 0 -3
BITMAP
3300
6600
0000
6300
6300
6300
6300
6300
6300
6300
6300
3600
1c00
0000
0000
0000
ENDCHAR
STARTCHAR ch-113
ENCODING 113
SWIDTH 562 0
DWIDTH 9 0
BBX 9 16 0 -3
BITMAP
0000
3300
6600
0000
6300
6300
6300
6300
6300
6300
6300
7700
3b00
0000
0000
0000
ENDCHAR
STARTCHAR ch-114
ENCODING 114
SWIDTH 562 0
DWIDTH 9 0
BBX 9 16 0 -3
BITMAP
0000
0000
6300
6300
6300
6300
6300
6300
6300
6300
6300
3600
1c00
0400
0500
0600
ENDCHAR
STARTCHAR ch-115
ENCODING 115
SWIDTH 562 0
DWIDTH 9 0
BBX 9 16 0 -3
BITMAP
0000
0000
0000
0000
6300
6300
6300
6300
6300
6300
6300
7700
3b00
0400
0500
0600
ENDCHAR
STARTCHAR ch-116
ENCODING 116
SWIDTH 562 0
DWIDTH 9 0
BBX 9 16 0 -3
BITMAP
1c00
3600
0000
6300
6100
6d00
6d00
6d00
3600
3600
3600
3600
3600
0000
0000
0000
ENDCHAR
STARTCHAR ch-117
ENCODING 117
SWIDTH 562 0
DWIDTH 9 0
BBX 9 16 0 -3
BITMAP
0000
1c00
3600
0000
6300
6100
6d00
6d00
6d00
3600
3600
3600
3600
0000
0000
0000
ENDCHAR
STARTCHAR ch-118
ENCODING 118
SWIDTH 562 0
DWIDTH 9 0
BBX 9 16 0 -3
BITMAP
1c00
3600
0000
c300
c300
6200
6600
3c00
1800
1800
1800
1800
1800
0000
0000
0000
ENDCHAR
STARTCHAR ch-119
ENCODING 119
SWIDTH 562 0
DWIDTH 9 0
BBX 9 16 0 -3
BITMAP
0000
1c00
3600
0000
6300
6300
6100
3300
3200
3200
1c00
1c00
0c00
0800
1800
3800
ENDCHAR
STARTCHAR ch-120
ENCODING 120
SWIDTH 562 0
DWIDTH 9 0
BBX 9 16 0 -3
BITMAP
6600
6600
0000
c300
c300
6200
6600
3c00
1800
1800
1800
1800
1800
0000
0000
0000
ENDCHAR
STARTCHAR ch-121
ENCODING 121
SWIDTH 562 0
DWIDTH 9 0
BBX 9 16 0 -3
BITMAP
0700
0e00
1800
7f00
0300
0300
0600
0c00
1800
3000
6000
6000
7f00
0000
0000
0000
ENDCHAR
STARTCHAR ch-122
ENCODING 122
SWIDTH 562 0
DWIDTH 9 0
BBX 9 16 0 -3
BITMAP
0000
0700
0e00
1800
7f00
0300
0600
0c00
1800
3000
6000
6000
7f00
0000
0000
0000
ENDCHAR
STARTCHAR ch-123
ENCODING 123
SWIDTH 562 0
DWIDTH 9 0
BBX 9 16 0 -3
BITMAP
0c00
0c00
0000
7f00
0300
0300
0600
0c00
1800
3000
6000
6000
7f00
0000
0000
0000
ENDCHAR
STARTCHAR ch-124
ENCODING 124
SWIDTH 562 0
DWIDTH 9 0
BBX 9 16 0 -3
BITMAP
0000
1800
1800
0000
7f00
0300
0600
0c00
1800
3000
6000
6000
7f00
0000
0000
0000
ENDCHAR
STARTCHAR ch-125
ENCODING 125
SWIDTH 562 0
DWIDTH 9 0
BBX 9 16 0 -3
BITMAP
3600
1c00
0000
7f00
0300
0300
0600
0c00
1800
3000
6000
6000
7f00
0000
0000
0000
ENDCHAR
STARTCHAR ch-126
ENCODING 126
SWIDTH 562 0
DWIDTH 9 0
BBX 9 16 0 -3
BITMAP
0000
3600
1c00
0000
7f00
0300
0600
0c00
1800
3000
6000
6000
7f00
0000
0000
0000
ENDCHAR
ENDFONT
